<?xml version="1.0" encoding="iso-8859-1"?>
<!-- Generator: Adobe Illustrator 19.0.0, SVG Export Plug-In . SVG Version: 6.00 Build 0)  -->
<svg version="1.1" id="Layer_1" xmlns="http://www.w3.org/2000/svg" xmlns:xlink="http://www.w3.org/1999/xlink" x="0px" y="0px"
	 viewBox="0 0 512 512" style="enable-background:new 0 0 512 512;" xml:space="preserve">
<g>
	<g>
		<path d="M437.019,74.981C388.668,26.628,324.379,0,256,0S123.332,26.628,74.981,74.981C26.629,123.333,0,187.621,0,256
			s26.628,132.668,74.981,181.019C123.333,485.371,187.621,512,256,512s132.668-26.628,181.019-74.981
			C485.371,388.667,512,324.379,512,256S485.372,123.332,437.019,74.981z M256,480.653C132.125,480.653,31.347,379.875,31.347,256
			S132.125,31.347,256,31.347S480.653,132.125,480.653,256S379.875,480.653,256,480.653z"/>
	</g>
</g>
<g>
	<g>
		<path d="M256,62.694C149.41,62.694,62.694,149.41,62.694,256S149.41,449.306,256,449.306S449.306,362.59,449.306,256
			S362.59,62.694,256,62.694z M256,417.959c-89.304,0-161.959-72.655-161.959-161.959S166.696,94.041,256,94.041
			S417.959,166.696,417.959,256S345.304,417.959,256,417.959z"/>
	</g>
</g>
<g>
	<g>
		<path d="M256,125.388c-62.601,0-109.714,91.911-109.714,151.51c0,60.496,49.218,109.714,109.714,109.714
			s109.714-49.218,109.714-109.714C365.714,217.299,318.601,125.388,256,125.388z M256,355.265
			c-43.212,0-78.367-35.156-78.367-78.367c0-45.201,37.957-120.163,78.367-120.163s78.367,74.962,78.367,120.163
			C334.367,320.11,299.212,355.265,256,355.265z"/>
	</g>
</g>
<g>
	<g>
		<path d="M256,229.878c-25.927,0-47.02,21.093-47.02,47.02s21.093,47.02,47.02,47.02s47.02-21.093,47.02-47.02
			C303.02,250.971,281.927,229.878,256,229.878z M256,292.571c-8.642,0-15.673-7.031-15.673-15.673s7.031-15.673,15.673-15.673
			c8.642,0,15.673,7.031,15.673,15.673S264.642,292.571,256,292.571z"/>
	</g>
</g>
<g>
</g>
<g>
</g>
<g>
</g>
<g>
</g>
<g>
</g>
<g>
</g>
<g>
</g>
<g>
</g>
<g>
</g>
<g>
</g>
<g>
</g>
<g>
</g>
<g>
</g>
<g>
</g>
<g>
</g>
</svg>
